<?xml version="1.0" encoding="UTF-8"?>
<!DOCTYPE svg PUBLIC "-//W3C//DTD SVG 1.1//EN" "http://www.w3.org/Graphics/SVG/1.1/DTD/svg11.dtd">
<!-- Creator: CorelDRAW X7 -->
<svg xmlns="http://www.w3.org/2000/svg" xml:space="preserve" width="319.6mm" height="100mm" version="1.1" style="shape-rendering:geometricPrecision; text-rendering:geometricPrecision; image-rendering:optimizeQuality; fill-rule:evenodd; clip-rule:evenodd"
viewBox="0 0 31960 10000"
 xmlns:xlink="http://www.w3.org/1999/xlink">
 <defs>
  <style type="text/css">
   <![CDATA[
    .fil0 {fill:#005FAF}
   ]]>
  </style>
 </defs>
 <g id="Layer_x0020_1">
  <metadata id="CorelCorpID_0Corel-Layer"/>
  <g id="_775489584">
   <path class="fil0" d="M15131 6941l-899 0c2,-70 140,-558 167,-669 30,-117 57,-213 85,-327l85 -340c305,0 958,-49 1203,71 305,149 388,529 220,816 -162,277 -500,449 -861,449zm-175 -2784l63 -287c23,-97 41,-193 67,-294 26,-101 44,-203 68,-295 26,-104 38,-272 89,-272l725 0c305,0 549,82 549,387 0,155 -67,346 -132,442 -201,294 -506,319 -842,319 -196,0 -391,0 -587,0zm-2734 -886c104,0 208,0 312,0 118,0 186,12 300,12l-280 1069c-31,125 -64,243 -92,357 -120,486 -251,952 -372,1438l-554 2143c-61,241 -131,481 -188,724l3508 0c384,0 731,0 1089,-85 379,-90 707,-218 1036,-425 144,-90 382,-267 500,-386l138 -149c48,-57 93,-99 139,-161 255,-339 494,-815 494,-1266 0,-458 -1,-878 -254,-1256 -142,-212 -435,-462 -670,-517l430 -270 391 -320c450,-454 777,-948 777,-1632 0,-1118 -954,-1686 -1947,-1686l-3483 0c-48,0 -117,197 -168,282l-315 609c-28,57 -53,92 -79,146l-554 1069c-54,109 -104,201 -158,304z"/>
   <path class="fil0" d="M29338 3383c0,789 25,1553 25,2335l-1023 0c65,-123 423,-1005 495,-1165l464 -1097c8,-21 4,-16 14,-35 11,-21 12,-22 25,-38zm-2884 -187l662 0c-62,117 -118,235 -179,358 -64,129 -124,235 -187,362 -98,196 -271,559 -370,729l-462 911c-453,910 -928,1818 -1382,2725l-366 733 2834 0 503 -1219c22,-49 60,-131 71,-180l1773 0 0 1399 2609 0c0,-350 -37,-677 -37,-1024l-25 -499c0,-102 -13,-163 -13,-250l-75 -1785c1,-102 -13,-163 -13,-250l-62 -1536c1,-101 -13,-148 -12,-249l-100 -2435c-2,-63 -13,-63 -13,-125l-3870 0c-35,0 -97,138 -133,204l-356 655c-132,217 -345,658 -479,882 -30,50 -53,98 -80,145l-117 220c-18,33 -24,38 -42,71 -21,39 -71,124 -79,158z"/>
   <path class="fil0" d="M24582 1061c-43,-10 -69,-24 -103,-34 -415,-132 -436,-102 -859,-103 -225,-1 -782,87 -986,137 -154,38 -290,76 -441,120l-410 153c-67,27 -125,53 -189,85 -435,219 -650,332 -1052,646 -28,22 -50,39 -76,61 -30,25 -55,44 -82,68l-144 131c-53,54 -97,84 -150,138 -53,53 -85,98 -137,149 -26,26 -44,43 -69,69 -122,127 -328,405 -433,552l-462 812c-16,35 -34,66 -48,102 -109,266 -214,532 -280,844 -32,152 -65,301 -85,476 -13,108 -45,431 -32,520 14,90 0,177 10,266 64,582 172,1007 475,1510 618,1027 1839,1513 3006,1513 825,0 723,-24 1497,-176 194,-38 119,-25 292,-369l526 -1123c33,-80 71,-149 107,-230 17,-37 35,-67 54,-108 20,-42 29,-71 50,-112l216 -458c21,-41 37,-72 53,-110 18,-45 41,-79 51,-123l-385 226c-365,192 -990,423 -1425,423 -712,0 -1455,-232 -1789,-907 -276,-555 -222,-1110 33,-1661 30,-65 62,-119 96,-178 29,-50 74,-116 110,-165 38,-51 79,-105 124,-151 31,-31 35,-44 62,-74l224 -201c176,-130 321,-221 530,-307 766,-312 1792,-240 2473,221l347 240 225 -412c27,-47 50,-95 80,-145 174,-290 378,-713 541,-981l390 -710c-48,-11 -62,-30 -108,-54l-1603 -844c-35,52 -180,245 -224,274z"/>
   <path class="fil0" d="M3358 2372l0 162c0,519 332,899 609,1214 83,95 132,119 226,236 378,470 514,812 616,1507 56,381 47,1672 47,2112l200 0 0 -1536c0,-939 192,-1634 833,-2275 314,-314 653,-754 653,-1220 0,-437 -33,-673 -277,-1034 -248,-367 -782,-627 -1221,-627 -393,0 -700,50 -1022,265l-156 119c-299,251 -508,667 -508,1077z"/>
   <path class="fil0" d="M212 4944c0,-44 -2,-95 0,-138l25 -424c26,-511 114,-1067 232,-1541 66,-263 178,-669 273,-913 36,-93 293,-777 352,-846l827 -347c72,-24 139,-48 215,-72 80,-24 142,-47 228,-72 660,-190 1314,-319 2018,-354l287 -12c98,0 175,-13 287,-13l1117 82c486,72 1024,187 1479,332 152,48 304,96 456,155l856 355c82,52 338,749 370,841 105,304 205,595 287,924 309,1245 377,2529 120,3806 -100,498 -216,921 -389,1397 -26,71 -302,787 -350,835 -68,68 -925,372 -1057,417 -80,26 -155,45 -231,68 -149,46 -318,93 -474,126 -507,104 -1018,212 -1547,225 -95,2 -125,14 -287,13 -103,-1 -174,12 -287,12l-438 -12c-62,-2 -69,-12 -137,-13 -93,-1 -187,-18 -275,-24 -646,-44 -1604,-302 -2198,-523 -147,-55 -289,-105 -431,-169l-312 -137c-193,-97 -95,-5 -300,-462 -65,-144 -108,-287 -166,-433 -93,-232 -217,-677 -280,-931 -82,-329 -145,-667 -191,-1020 -39,-292 -79,-836 -79,-1132zm4506 -4944l487 0c365,10 725,43 1073,102 758,127 1217,260 1910,511 44,16 794,321 851,361 43,30 177,361 199,412 339,773 536,1527 676,2358 107,628 100,1092 99,1700l-45 566c-60,435 -80,604 -175,1037 -154,699 -347,1179 -610,1812 -125,300 -112,241 -286,325 -136,66 -279,124 -420,179 -290,116 -589,212 -907,304 -293,85 -687,168 -992,219 -320,53 -774,114 -1097,114l-877 0c-186,-6 -379,-19 -611,-48 -555,-68 -928,-156 -1456,-304 -496,-139 -841,-288 -1296,-477l-205 -95c-108,-54 -87,-31 -141,-145 -240,-503 -399,-986 -556,-1517 -22,-71 -47,-159 -61,-226 -213,-1022 -278,-1270 -278,-2419 0,-910 235,-2164 574,-3021 66,-166 183,-481 262,-637 23,-45 66,-162 93,-194 52,-62 695,-305 838,-360 141,-55 301,-110 448,-152 156,-45 307,-90 459,-128 644,-160 1345,-258 2044,-277z"/>
   <path class="fil0" d="M5193 5993l0 1610 175 0c0,-243 46,-473 133,-666 64,-141 166,-336 276,-448l83 -92c127,-106 132,-135 315,-234 675,-367 1298,-409 1609,-564 580,-289 674,-1042 327,-1625 -219,-368 -531,-524 -939,-584 -216,-32 -352,-21 -555,68 -469,205 -862,660 -1086,1111 -191,384 -338,850 -338,1424z"/>
   <path class="fil0" d="M1585 4669c0,442 234,780 533,928 162,81 371,122 554,171 490,129 1163,344 1466,731 29,38 49,56 78,96 29,38 51,72 76,112 167,259 265,560 265,896 114,0 162,16 162,-37l-12 -1561c0,-333 -43,-630 -121,-891 -102,-344 -281,-730 -500,-998 -40,-49 -69,-93 -113,-137 -99,-97 -52,-68 -193,-193 -27,-24 -35,-37 -65,-60 -420,-329 -777,-445 -1311,-260 -491,170 -819,691 -819,1203z"/>
   <path class="fil0" d="M5506 7541l0 62c268,0 92,-4 247,-214 146,-196 434,-335 689,-335 76,0 360,60 460,76 501,84 845,107 1210,-254 283,-281 334,-665 225,-1068 -20,-75 -82,-266 -172,-290 -40,170 -358,291 -525,337 -801,224 -1682,373 -2029,1204 -54,127 -105,308 -105,482z"/>
   <path class="fil0" d="M2434 7179c277,0 323,-16 575,-50 309,-41 383,-133 734,-23 227,72 409,221 485,451 19,57 -10,46 166,46l0 -100c0,-302 -188,-665 -334,-827 -47,-53 -85,-104 -140,-147 -242,-186 -218,-183 -545,-329 -402,-179 -1161,-339 -1319,-415 -105,-51 -294,-154 -321,-267 -156,42 -324,705 -137,1087 130,265 445,574 836,574z"/>
   <path class="fil0" d="M3358 8639c-51,0 -59,-23 -125,-25 0,-76 23,-147 38,-212 179,0 175,54 175,125 0,52 -35,112 -88,112zm-399 412c172,4 151,116 201,-136 10,-51 32,-127 36,-176 253,21 145,135 125,375 42,22 125,48 187,50 -25,-107 -12,-155 14,-274 25,-114 -4,-93 -51,-163 116,-10 137,-138 137,-238 0,-119 -80,-161 -174,-187l-313 -62c0,61 -63,328 -80,406 -15,69 -31,131 -44,194 -13,62 -38,148 -38,211z"/>
   <path class="fil0" d="M5880 8864l137 0c68,100 106,237 -99,237 -6,-71 -28,-162 -38,-237zm-37 -337c118,0 162,-53 162,125 0,46 -64,75 -112,75 -49,0 -36,-40 -41,-85 -4,-39 -9,-60 -9,-115zm-188 -88c28,120 41,282 59,404l54 408c95,0 160,-15 248,-27 190,-26 245,-100 211,-307 -20,-116 -83,-128 -135,-153 21,-31 75,-77 75,-125 0,-355 -265,-220 -512,-200z"/>
   <path class="fil0" d="M3795 9001c0,222 165,237 337,237 178,0 199,-177 218,-319l57 -492c-200,0 -161,-64 -180,94 -10,77 -20,157 -29,222 -10,80 -18,149 -27,222 -10,78 -30,136 -114,136 -160,0 -75,-281 -47,-509 7,-59 22,-135 22,-202 -215,-18 -153,-88 -194,205 -18,131 -43,272 -43,406z"/>
   <path class="fil0" d="M2222 8714c0,143 127,212 262,212 57,0 65,-26 100,-50 -7,30 -11,37 -12,75 41,4 75,17 112,25 17,-71 36,-142 58,-216 16,-55 53,-167 54,-221 -91,-7 -145,-62 -249,-62 -10,42 -24,74 -25,125 24,11 66,22 100,25 -48,99 -30,175 -163,175 -149,0 -24,-327 -8,-383 23,-77 44,-204 133,-204 152,0 100,156 100,187 45,1 46,6 84,17 13,4 13,7 38,10 82,10 50,-194 -6,-255 -46,-51 -159,-97 -253,-97 -146,0 -200,130 -236,239 -30,89 -89,291 -89,398z"/>
   <path class="fil0" d="M7266 8290c2,2 4,3 4,8 4,20 128,227 133,291 -56,2 -66,14 -112,25 0,-113 -25,-204 -25,-324zm0 0l-14 -25 14 25zm-150 -125c0,137 25,286 25,425l25 424c54,-13 118,-29 162,-50 0,-82 -12,-121 -12,-212 61,-6 97,-38 150,-38 30,0 91,140 100,175 64,-6 103,-33 162,-38 -4,-47 -161,-310 -195,-367l-205 -369c-88,2 -136,43 -212,50z"/>
   <path class="fil0" d="M4869 8814l-100 0 13 -225c79,0 192,-17 182,108 -5,70 -23,117 -95,117zm-287 462l162 0 25 -337c63,5 192,41 290,-48 91,-83 121,-370 -74,-418 -42,-10 -118,-7 -179,-8 -72,-1 -94,-13 -174,-13 0,142 -36,455 -37,612 -1,75 -13,122 -13,212z"/>
   <path class="fil0" d="M6392 8477c0,168 46,649 262,649 368,0 287,-234 287,-362 -62,1 -100,24 -162,25 35,152 23,200 -75,200 -99,0 -138,-338 -156,-457 -13,-85 21,-130 94,-130 70,0 63,125 100,125 57,0 82,-21 137,-25 -1,-60 -33,-128 -60,-165 -105,-142 -427,-70 -427,140z"/>
  </g>
 </g>
</svg>
