<?xml version="1.0" encoding="UTF-8"?>
<!DOCTYPE svg PUBLIC "-//W3C//DTD SVG 1.1//EN" "http://www.w3.org/Graphics/SVG/1.1/DTD/svg11.dtd">
<!-- Creator: CorelDRAW X7 -->
<svg xmlns="http://www.w3.org/2000/svg" xml:space="preserve" width="266.41mm" height="100mm" version="1.1" style="shape-rendering:geometricPrecision; text-rendering:geometricPrecision; image-rendering:optimizeQuality; fill-rule:evenodd; clip-rule:evenodd"
viewBox="0 0 26641 10000"
 xmlns:xlink="http://www.w3.org/1999/xlink">
 <defs>
  <style type="text/css">
   <![CDATA[
    .fil0 {fill:#00539E}
   ]]>
  </style>
 </defs>
 <g id="Layer_x0020_1">
  <metadata id="CorelCorpID_0Corel-Layer"/>
  <g id="_769995624">
   <path class="fil0" d="M1843 4979c98,140 293,305 429,442 155,157 259,234 417,417 263,304 576,524 840,877 227,305 549,673 466,1211 -73,470 -399,838 -644,1028 -511,396 -631,324 -1379,325 -626,2 -844,-184 -843,-823l0 -6814c-1,-654 178,-899 843,-899 649,0 1021,-88 1415,274 1717,1579 -657,2818 -1544,3962zm5901 -2781c0,-789 -356,-1114 -485,-1448 1227,-15 1579,-151 1583,1031 8,1856 50,4374 -10,6158l-2846 -2960c110,-185 412,-419 580,-597 538,-569 1178,-1247 1178,-2184zm-4502 2781c362,-518 1953,-1525 1728,-3099 -86,-595 -326,-782 -456,-1132 937,-8 1567,-161 2089,853 703,1368 -1451,2537 -2001,3378 138,218 293,333 504,529 178,166 324,343 496,523l2977 3107c-129,129 -208,144 -442,144l-3696 -6c66,-148 212,-324 302,-505 977,-1967 -1184,-3294 -1501,-3792zm-3194 3615c66,677 554,1187 1141,1340 430,111 1897,48 2452,48 807,0 4482,43 4955,-10 1728,-191 1338,-2339 1338,-3602 0,-887 46,-4367 -8,-4949 -165,-1779 -2300,-1383 -3597,-1383 -774,0 -4506,-43 -4942,11 -1747,219 -1348,2289 -1348,3586 0,868 -45,4404 9,4959z"/>
   <path class="fil0" d="M12922 5500c1274,-51 2529,-200 2493,1056 -34,1210 -1416,1041 -2501,1019l8 -2075zm-6 -3178c842,-47 1932,-159 2024,712 123,1170 -1021,1047 -2026,1035l1 -1361 1 -386zm3357 1896c391,-322 640,-753 670,-1323 48,-926 -313,-1455 -918,-1771 -699,-364 -1495,-329 -2372,-328 -900,1 -1800,2 -2700,2l14 8294c1063,8 2132,4 3196,1 1041,-3 1814,-132 2455,-685 1181,-1018 1144,-3002 -187,-3657 -84,-41 -188,-91 -292,-127l-276 -108 410 -298z"/>
   <path class="fil0" d="M19637 2333c585,-22 1591,-76 1942,281 183,186 1029,2191 -1943,1914l0 -2006 1 -189zm2716 3202c133,-116 323,-225 467,-335 131,-99 253,-207 377,-362 204,-254 409,-612 495,-1036 196,-967 -28,-1847 -545,-2338 -579,-550 -1309,-668 -2356,-668 -1007,0 -2023,-12 -3028,3l-2 8290 1874 -4 2 -3040 829 7c152,134 835,1240 1019,1524 326,503 646,1026 980,1516l2259 -3c-138,-323 -2280,-3307 -2371,-3554z"/>
   <polygon class="fil0" points="24997,9101 26641,9099 26626,819 24993,821 "/>
  </g>
 </g>
</svg>
