<?xml version="1.0" encoding="UTF-8"?>
<!DOCTYPE svg PUBLIC "-//W3C//DTD SVG 1.1//EN" "http://www.w3.org/Graphics/SVG/1.1/DTD/svg11.dtd">
<!-- Creator: CorelDRAW X7 -->
<svg xmlns="http://www.w3.org/2000/svg" xml:space="preserve" width="343.27mm" height="100mm" version="1.1" style="shape-rendering:geometricPrecision; text-rendering:geometricPrecision; image-rendering:optimizeQuality; fill-rule:evenodd; clip-rule:evenodd"
viewBox="0 0 34327 10000"
 xmlns:xlink="http://www.w3.org/1999/xlink">
 <defs>
  <style type="text/css">
   <![CDATA[
    .fil1 {fill:#00396F}
    .fil0 {fill:#FFB600}
   ]]>
  </style>
 </defs>
 <g id="Layer_x0020_1">
  <metadata id="CorelCorpID_0Corel-Layer"/>
  <g id="_562215928">
   <path class="fil0" d="M21949 2092c-859,0 -1024,-357 -1564,-1044 -302,-385 -524,-652 -1011,-794 -475,-140 -954,-74 -1402,68 -447,141 -2378,1291 -3013,1657 -106,60 -211,125 -327,189 -457,250 -885,515 -1337,755 35,128 603,780 700,905 346,442 763,556 1306,556 332,0 812,-327 1145,-517 530,-304 1583,-946 2112,-1212 616,-310 1542,-515 2233,-237 824,332 1396,1594 1876,1763 204,71 397,55 601,3 436,-110 2411,-1354 3055,-1701 1082,-582 2308,-549 3088,456l408 508c63,75 73,99 145,171 645,646 1082,460 1801,38 638,-376 1928,-1143 2562,-1478 -134,-253 -771,-1023 -1024,-1269 -968,-941 -2395,1011 -3704,1011 -353,0 -671,-171 -853,-350 -288,-284 -750,-1018 -1152,-1284 -272,-180 -580,-268 -895,-286l-244 0c-439,24 -879,174 -1245,396l-2095 1200c-188,104 -337,202 -526,305 -98,54 -170,95 -271,130 -106,37 -231,61 -369,61z"/>
   <path class="fil1" d="M1003 6218l-57 -631 -946 0c0,350 29,593 29,946l0 3381 1089 0 0 -2636c0,-822 1102,-1268 1453,-479 195,440 123,2523 123,3115l1060 0 0 -2493c0,-1318 1576,-1448 1576,0l0 2493 1089 0 0 -2579c0,-882 -337,-1537 -978,-1773 -352,-129 -831,-87 -1138,59 -215,103 -657,413 -721,654l-57 0c-16,-188 -298,-479 -435,-568 -211,-138 -545,-246 -790,-227 -502,41 -754,154 -1061,458 -49,50 -84,78 -126,132l-110 148z"/>
   <path class="fil1" d="M16820 7851c0,-435 22,-697 251,-1067 473,-759 1783,-505 1783,580 0,606 76,995 -240,1421 -432,583 -1794,467 -1794,-934zm915 2149l-381 0c-320,-34 -631,-155 -887,-363 -285,-232 -381,-390 -536,-697 -518,-1026 -274,-2892 1114,-3357 689,-230 1327,-91 1809,463l0 -2206c1282,0 1122,-90 1118,314l0 5015c0,289 28,480 28,745l-1003 0c0,-261 -28,-403 -28,-659 -78,57 -87,131 -236,280 -272,270 -628,425 -998,465z"/>
   <path class="fil1" d="M12292 6218c0,-193 -53,-449 -57,-631l-974 0c0,164 29,199 29,373l0 3954 1117 0 0 -2407c0,-593 277,-1117 917,-1117 571,0 802,488 802,1060l0 2464 1118 0 0 -2350c0,-500 -53,-872 -204,-1228 -59,-139 -184,-319 -290,-427 -425,-435 -1060,-515 -1631,-326 -216,72 -296,130 -463,254 -283,211 -243,292 -364,381z"/>
   <path class="fil1" d="M8625 9226c-887,0 -959,-1404 487,-1404l372 0c0,430 64,866 -250,1154 -115,106 -402,250 -609,250zm-1433 -3352c74,154 155,562 229,716 366,-193 690,-315 1204,-315 557,0 831,282 831,802 -1342,0 -2511,364 -2558,1617 -27,705 561,1306 1182,1306 466,0 845,-7 1253,-352 86,-72 121,-161 237,-192 0,201 44,294 58,458l1003 0c-49,-578 -58,-279 -58,-974 0,-929 104,-2172 -309,-2786 -226,-336 -535,-523 -935,-612 -436,-98 -925,-58 -1371,38 -308,66 -528,168 -766,294z"/>
   <path class="fil1" d="M22579 6017l0 3897 1117 0 0 -2178c0,-332 81,-644 225,-836 274,-366 562,-367 950,-367 217,0 172,244 172,-946 -495,0 -981,9 -1313,521l-119 225c-3,5 -7,13 -10,18l-48 67c0,-315 -28,-519 -28,-831l-975 0c0,182 29,240 29,430z"/>
   <polygon class="fil1" points="25530,9914 26648,9914 26648,5587 25530,5587 "/>
   <polygon class="fil1" points="20717,9914 21834,9914 21834,5587 20717,5587 "/>
  </g>
 </g>
</svg>
