<svg width="1966" height="2140" viewBox="0 0 1966 2140" fill="none" xmlns="http://www.w3.org/2000/svg">
<path fill-rule="evenodd" clip-rule="evenodd" d="M844.868 1516.98C869.735 1516.98 890.087 1516.98 903.817 1516.98C906.665 1469.65 910.075 1424.91 911.868 1380.09C913.676 1335.34 909.098 1292.37 861.426 1256.4C878.075 1322.86 857.278 1369.01 807.512 1405.4C850.911 1433.25 856.219 1471.46 844.868 1516.98ZM1410.1 909.379C1368.23 931.25 1324.73 952.532 1282.75 976.493C1262.75 987.93 1242.72 1001.97 1228.04 1019.35C1215.21 1034.52 1209.9 1056.03 1201.28 1074.74C1204.13 1076.74 1206.98 1078.73 1209.82 1080.73C1250.72 1034.19 1298.95 1025.57 1357.36 1054.3C1361.75 1004.24 1393.48 979.743 1431.89 965.68C1423.32 943.52 1415.88 924.321 1410.1 909.379ZM1336.82 1360.71C1297.8 1335.95 1260.23 1311.47 1221.95 1288.12C1205.2 1277.92 1187.75 1267.72 1169.27 1261.72C1142.28 1252.97 1114.22 1249.51 1082.45 1273.23C1152.95 1282.38 1178.62 1325.9 1182.77 1390.56C1227.79 1363.92 1265.06 1379.89 1298.12 1404.88C1313.06 1387.82 1325.91 1373.16 1336.82 1360.71ZM1155.64 738.36C1119.59 709.95 1096.38 676.25 1121.06 628.872C1094.54 625.672 1072.14 622.969 1049.05 620.18C1051.95 641.672 1056.79 661.879 1056.84 682.11C1056.9 703.969 1051.59 725.801 1050.25 747.75C1049.16 766.051 1048.25 784.852 1051.11 802.809C1055.65 831.403 1064.18 859 1094.57 875C1093.61 800.11 1100.16 785.469 1155.64 738.36ZM620.462 793.039C669.547 794.469 702.969 823.039 738.571 849.602C759.602 865.289 785.805 876.129 811.344 883C830.391 888.122 852.098 883.379 872.626 883.032C873.688 879.082 874.747 875.122 875.817 871.172C816.032 856.789 784.333 819.153 780.282 761.801C757.098 761.801 735.493 765.5 715.969 760.731C697.141 756.122 680.45 742.75 663.458 733.559C649.993 752.192 636.559 770.762 620.462 793.039ZM527.446 1173.3C540.301 1200.15 549.962 1220.34 556.442 1233.88C588.934 1215.45 621.247 1196.86 653.829 1178.78C670.981 1169.26 690.008 1162.6 705.79 1151.27C734.208 1130.88 757.387 1105.93 757.821 1066.55C712.426 1107.36 663.559 1113.7 608.329 1086.71C597.555 1131.72 577.657 1166.86 527.446 1173.3ZM315.606 952.711C363.766 988.852 376.575 1024.6 357.356 1055.38C345.571 1074.25 328.911 1083.72 307.333 1071.77C286.337 1060.15 285.571 1043.96 300.29 1025.83C303.11 1022.36 304.055 1017.39 305.977 1012.84C272.294 1004.27 252.77 1017.86 250.02 1050.04C247.579 1078.64 267.157 1111.2 293.133 1121.72C322.708 1133.7 358.399 1125.7 375.247 1098.28C387.915 1077.7 396.258 1053.77 402.899 1030.28C429.278 936.84 474.239 856 554.501 797.942C542.903 785.379 530.005 773.77 520.024 760.051C507.184 742.379 504.813 720.911 522.313 706.512C532.301 698.289 551.985 693.782 563.844 697.801C581.43 703.75 583.325 721.02 572.665 737.801C569.106 743.391 567.419 750.153 564.208 758.051C586.739 765.59 597.02 754.922 604.251 739.211C614.708 716.481 606.161 687.25 583.946 670.02C562.837 653.622 536.919 650.071 520.055 669.551C498.145 694.852 477.391 724.442 466.997 755.782C439.661 838.11 412.751 918.481 315.606 952.711ZM1207.11 1698.25C1211.38 1684.7 1211.7 1673.08 1217.66 1666.82C1233.95 1649.64 1250.48 1630.52 1270.96 1620.04C1291.71 1609.42 1316.79 1625.44 1319 1645.9C1321.61 1669.93 1308.55 1682.47 1285.03 1684.81C1279.31 1685.39 1273.57 1685.94 1266.57 1686.62C1267.57 1709.63 1281.45 1715.33 1298.28 1717.4C1337.3 1722.21 1365.69 1696.51 1368.07 1654.48C1370.68 1608.81 1341.71 1576.91 1297.91 1579.51C1279.65 1580.6 1261.52 1585.59 1243.6 1589.94C1147.31 1613.36 1051.85 1618.84 957.278 1576.81C954.446 1589.7 953.446 1602.15 948.938 1613.16C940.176 1634.56 926.676 1654.39 900.485 1650.45C888.485 1648.65 871.477 1637.26 869.075 1627.26C866.907 1618.2 880.067 1603.72 889.227 1594.31C895.036 1588.34 905.887 1587.27 914.477 1584C914.907 1580.1 915.356 1576.19 915.786 1572.28C903.657 1569.1 890.696 1561.54 879.516 1563.59C850.926 1568.81 835.903 1590.1 831.547 1617.82C827.516 1643.49 841.153 1664.87 863.626 1669.45C896.446 1676.15 931.215 1676.92 964.848 1674.89C996.516 1672.98 1027.61 1662.96 1059.23 1658.68C1112.64 1651.45 1161.14 1667.56 1207.11 1698.25ZM551.337 1587.98C579.825 1568.67 608.2 1561.62 632.973 1581.76C646.61 1592.83 656.442 1611.77 661.098 1629C662.864 1635.54 646.93 1651.49 636.126 1655.8C613.044 1665 605.09 1643.36 594.274 1629.16C593.696 1628.41 592.075 1628.47 590.946 1628.15C565.946 1655.77 575.387 1687.26 612.434 1699.84C641.059 1709.56 678.313 1701.47 694.809 1681.98C712.497 1661.07 715.477 1626.72 696.895 1598.92C682.016 1576.67 661.661 1558.07 643.919 1537.69C585.149 1470.18 535.458 1398.35 533.458 1308.75C506.333 1308.75 478.606 1311.65 452.141 1307.11C443.321 1305.59 432.313 1284.99 432.387 1273.17C432.446 1263.02 445.243 1247.54 455.422 1244.48C464.419 1241.79 478.087 1252.14 488.669 1258.43C494.024 1261.61 497.133 1268.57 501.672 1274.37C521.313 1257.06 516.399 1242.03 503.712 1227.44C486.286 1207.43 458.145 1202.82 432.805 1215.34C407.149 1227.99 391.59 1253.56 403.321 1279.09C417.883 1310.78 437.247 1341.74 460.442 1367.75C512.696 1426.35 557.7 1486.41 547.505 1571.11C547.098 1574.5 549.005 1578.14 551.337 1587.98ZM1375.07 515.411C1392.43 485.559 1390.32 468.403 1369.93 451.172C1345.66 430.672 1302.46 431.082 1277.12 452.032C1250.81 473.801 1243.73 508.832 1262.59 538.461C1274.39 557.012 1288.94 574.309 1304.53 589.872C1374.5 659.719 1424.27 739.379 1430.62 836.801C1456.07 834.84 1481.4 829.231 1505.35 832.789C1515.41 834.282 1527.47 854.411 1529.45 867.461C1530.82 876.571 1518.81 891.711 1508.89 897.61C1492.16 907.582 1482.15 894.43 1474.78 880.051C1472.75 876.122 1468.82 873.172 1464.36 868.211C1442 886.18 1446.25 902.872 1463.38 917.942C1482.86 935.11 1505.85 936.789 1529.06 926.059C1553.2 914.879 1568.12 893.422 1558.73 869.289C1545.66 835.7 1529.57 800.672 1505.78 774.403C1450 712.789 1398.22 651.872 1416.48 557.762C1401.2 562.27 1390.91 566.43 1380.2 568.25C1352.93 572.911 1327.87 567.532 1310.54 544.52C1297.28 526.93 1295.48 506.782 1314.31 491.801C1332.79 477.102 1350.84 479.032 1363.84 501.211C1366.23 505.321 1369.77 508.782 1375.07 515.411ZM1643.75 1190.78C1629.6 1175.96 1618.12 1166.33 1609.63 1154.53C1592.16 1130.21 1591.97 1095.06 1611.94 1080.35C1622.75 1072.38 1641.91 1068.43 1654.57 1072.12C1672.22 1077.27 1674.56 1094.87 1667.23 1112.19C1664.2 1119.37 1662.16 1126.97 1659.35 1135.33C1691.09 1135.42 1708.91 1121.52 1713.41 1095.74C1717.91 1070 1699.96 1034.39 1674.72 1021.53C1648.07 1007.94 1619.93 1007.78 1600 1030.61C1584.48 1048.42 1572.13 1071.44 1565.57 1094.22C1536.8 1194.02 1495.53 1285.13 1403.43 1346.94C1412.93 1352.53 1420.64 1356.08 1427.21 1361.13C1448.03 1377.14 1453.98 1399.19 1448.48 1423.76C1443.63 1445.28 1421.34 1456.28 1402.62 1447.25C1382.27 1437.41 1381.29 1422.43 1393.12 1404.74C1396.25 1400.06 1398.18 1394.55 1400.84 1389.07C1371.23 1380.2 1354.66 1391.15 1353.7 1419.39C1352.75 1446.8 1366.45 1466.54 1390.41 1478.59C1414.75 1490.82 1440.32 1485.61 1453.3 1464.66C1474.98 1429.63 1493.36 1391.72 1507.36 1352.93C1532.81 1282.38 1565.52 1219.6 1643.75 1190.78ZM1047.35 553.43C1046.23 556.75 1045.1 560.082 1043.95 563.411C1051.39 567.981 1058.28 574.852 1066.34 576.711C1092.39 582.719 1117.13 566.903 1126.88 539.891C1136.73 512.512 1129.47 481.25 1104.84 473.25C1078.91 464.84 1049.81 461.629 1022.52 463.301C989.587 465.332 957.376 477.43 924.407 480.629C863.786 486.5 803.899 484.082 752.876 434.68C748.723 454.403 747.594 465.442 744.028 475.661C734.235 503.653 714.856 521.512 684.614 523.731C663.837 525.27 647.622 516.09 644.747 493.879C642.024 472.86 654.942 462.629 674.481 458.762C682.083 457.262 689.344 454.082 697.59 451.391C677.633 420.731 661.708 415.102 635.419 427.211C606.348 440.602 586.926 475.993 592.106 506.153C597.094 535.122 620.782 558.551 654.13 560.211C676.981 561.34 700.801 557.082 723.141 551.25C818.157 526.461 911.985 520.731 1003.98 564.153C1007.07 552.02 1007.19 539.571 1013.07 531.172C1023.32 516.559 1034.93 500.262 1050 492.372C1067.61 483.161 1088.66 489.629 1095.5 510.653C1102.63 532.559 1090.37 545.532 1067.54 548.403C1060.72 549.262 1054.07 551.711 1047.35 553.43ZM1149.43 1459.5C1149.18 1456.69 1148.95 1453.9 1148.7 1451.1C1113.73 1470.69 1078.63 1475.77 1044.75 1450.04C1018.85 1430.36 1014.81 1408.91 1032.88 1390.92C1054.6 1369.27 1070.95 1379.06 1087.98 1399.32C1105.03 1419.57 1124.29 1415.82 1137.68 1392.46C1157.94 1357.11 1133.04 1315.36 1088.44 1309.93C1036.98 1303.67 985.297 1340.74 965.997 1397.7C946.505 1455.32 965.337 1510.65 1017.65 1537.17C1087.91 1572.8 1159.59 1572.79 1231.19 1538.27C1262.5 1523.17 1274.75 1496.98 1270.03 1465.79C1267.65 1450.04 1255.14 1430.79 1241.59 1423.27C1229.31 1416.44 1209.4 1423.37 1192.84 1424.24C1195.28 1427.64 1197.72 1431.04 1200.16 1434.44C1197.38 1448.78 1194.59 1463.13 1191.79 1477.47C1177.66 1471.49 1163.55 1465.48 1149.43 1459.5ZM567.618 1075.75C563.337 1073.64 561.227 1072.54 559.04 1071.54C548.04 1066.55 537.016 1061.6 526.001 1056.62C533.665 1047.32 541.735 1038.3 548.876 1028.61C556.169 1018.74 565.274 1009.05 568.833 997.782C578.395 967.61 595.505 944.602 625.657 934.602C653.567 925.36 680.161 937.082 683.012 958.622C686.758 986.993 665.747 992.09 644.426 998.141C633.926 1001.11 618.309 1009.08 617.153 1016.63C615.462 1027.87 621.434 1043.62 629.559 1052.4C658.528 1083.7 710.751 1072.74 729.68 1029.13C749.911 982.551 740.669 936.411 709.044 897.309C679.09 860.282 639.161 842.25 590.989 854.172C515.079 872.942 438.837 991.692 451.692 1068.84C456.712 1098.99 489.758 1130.48 516.743 1130.82C542.239 1131.16 559.649 1112.89 567.618 1075.75ZM1233.32 742.039C1264.4 755.25 1284.82 783.059 1278.91 825.961C1274.66 856.809 1255.11 872.879 1228.59 865.879C1196.57 857.422 1207.97 836.379 1214.68 815.911C1224.52 785.86 1208.02 768.539 1176.29 774.34C1132.84 782.309 1115.89 835.192 1144.19 874.539C1171.2 912.129 1227.5 932.59 1272.63 921.18C1344.96 902.922 1378.04 850.743 1364.25 776.719C1350.53 703.059 1312.56 646.403 1244.69 613.051C1214.47 598.2 1174.07 615.082 1159.16 644.512C1147.2 668.102 1155.8 688.77 1179.73 703.661C1199.16 697.09 1214.63 691.84 1230.1 686.61C1231.07 703.262 1232.04 719.911 1233.32 742.039ZM1402.8 1121.18C1400.3 1120.15 1397.79 1119.11 1395.3 1118.08C1390.81 1171.56 1365.87 1205.92 1327.36 1210.61C1305.23 1213.3 1287.03 1205.32 1281.98 1182.67C1277.25 1161.61 1291.6 1150.79 1310.85 1147.69C1330.98 1144.42 1347.94 1138.27 1344.86 1113.52C1341.68 1087.93 1325.29 1074.77 1300.12 1072.59C1267.15 1069.73 1237.93 1091.6 1226.09 1127.51C1204.32 1193.49 1260.36 1278.71 1329.3 1288.05C1444.41 1303.66 1534.34 1145.02 1503.15 1049.91C1494.45 1023.43 1458.41 1004.73 1434.07 1012.7C1408.39 1021.1 1393.52 1038.59 1396.25 1059.25C1414.81 1071.96 1427.34 1080.54 1439.85 1089.11C1427.5 1099.8 1415.15 1110.49 1402.8 1121.18ZM730.274 1408.93C732.876 1408.24 735.477 1407.55 738.071 1406.87C728.942 1401 719.122 1395.97 710.821 1389.1C679.278 1363.01 671.872 1321.82 693.352 1293.84C705.571 1277.92 721.161 1267.65 741.192 1277.63C761.626 1287.81 755.856 1304.84 750.895 1322.53C747.672 1333.97 745.368 1353.53 751.27 1357.94C761.477 1365.58 779.27 1368.59 792.317 1365.9C833.786 1357.37 846.083 1304.11 817.594 1263C790.809 1224.35 730.563 1207.7 677.255 1224.23C627.215 1239.75 590.196 1284.9 593.665 1333.55C599.419 1414.43 634.317 1479.92 706.005 1522.16C731.485 1537.19 758.028 1536.94 782.712 1520C816.044 1497.14 813.399 1457.05 782.899 1437.27C764.649 1444.77 749.751 1450.91 734.84 1457.04C733.325 1441 731.79 1424.96 730.274 1408.93ZM762.477 717.653C765.587 696.653 767.887 681.122 770.188 665.59C787.09 671.332 804.001 677.071 827.196 684.961C829.551 684.012 839.489 678.821 850.059 675.981C881.837 667.442 917.465 680.012 931.528 704.61C941.587 722.2 943.778 740.852 926.598 754.821C908.356 769.653 893.426 761.832 879.387 745.059C872.465 736.77 857.172 725.801 851.161 728.461C839.215 733.762 826.587 746.032 822.165 758.282C807.512 798.789 853.758 841.872 900.196 832.789C968.067 819.532 1014.82 747.801 1001.41 679.661C993.868 641.34 972.938 615.059 937.797 599.301C862.626 565.59 789.219 567.75 719.469 612.911C690.516 631.653 681.954 670.539 696.954 697.93C710.184 722.082 734.079 728.34 762.477 717.653ZM860.575 1112.11C854.614 1108.27 851.868 1105.36 848.614 1104.59C825.805 1099.22 816.887 1085.67 826.27 1063.78C835.598 1042.06 853.403 1041.26 872.876 1048.78C906.047 1061.61 920.098 1099.47 903.876 1131.72C886.926 1165.36 844.926 1178.69 812.153 1159.94C801.829 1154.02 793.024 1145.42 781.465 1136.46C768.626 1150.56 756.708 1163.62 745.325 1176.12C786.415 1191.73 823.926 1206.01 861.458 1220.26C880.997 1227.66 899.997 1237.84 920.215 1241.7C949.618 1247.3 965.547 1228.57 957.356 1199.42C951.766 1201.74 945.958 1203.22 941.196 1206.31C924.368 1217.23 907.797 1218.14 895.266 1201.53C881.485 1183.25 894.126 1168.9 906.965 1156.74C930.825 1134.12 968.028 1135.64 990.028 1159.31C1011.95 1182.92 1012.05 1227.99 987.895 1250.11C974.618 1262.27 957.536 1270.28 939.305 1281.99C944.708 1296.35 950.387 1311.42 957.137 1329.36C980.825 1308.34 999.407 1290.45 1019.48 1274.41C1039.69 1258.29 1063.38 1246.07 1081.72 1228.19C1093.95 1216.27 1103.64 1198.29 1106.88 1181.54C1110.35 1163.61 1099.16 1152.27 1081.77 1161.02C1075.72 1178.76 1070.59 1196.33 1059 1206.62C1053.71 1211.29 1027.06 1204.24 1025.05 1197.82C1019.75 1180.92 1017.52 1159.59 1023.39 1143.4C1034.09 1113.85 1061.18 1102.95 1089.06 1110.23C1124.78 1119.54 1144.98 1142.56 1144.61 1174.54C1144.46 1186.36 1142.7 1198.14 1141.46 1212.68C1158.13 1214.18 1171.82 1215.41 1187.96 1216.86C1181.23 1172.72 1175.16 1133.9 1169.41 1095.04C1166.72 1076.84 1167.6 1057.5 1161.59 1040.55C1150.71 1009.86 1125.25 1006.45 1104.98 1032.47C1109.98 1035.78 1114.43 1040.41 1119.75 1041.95C1137.28 1047 1144.84 1057.4 1138.84 1075.09C1132.37 1094.15 1118.14 1104.78 1098.95 1097.33C1084.94 1091.89 1070.13 1082.03 1061.75 1069.94C1042.61 1042.3 1048.84 1018.97 1077.72 991.789C1103.65 967.36 1126.48 964.571 1154.15 982.879C1163.12 988.809 1171.52 995.559 1181.72 1003.08C1195.5 990.461 1207.66 979.321 1220.05 967.969C1170.23 947.52 1123.75 928.219 1077.07 909.411C1065.72 904.84 1053.89 899.602 1041.96 898.653C1012.87 896.289 997.817 916.34 1008.54 944.36C1014.8 940.59 1020.87 937.211 1026.66 933.391C1045.6 920.95 1060.43 928.051 1069.98 945.161C1081.6 965.969 1068.94 980.61 1052.57 991.61C1029.12 1007.38 991.856 1000.48 971.755 977.762C949.587 952.68 949.297 919.461 974.137 894.559C987.547 881.11 1005.27 871.95 1021.98 860.211C1018.41 844.411 1015.06 829.582 1011.36 813.211C963.075 850.84 918.028 884.852 874.528 920.719C864.958 928.629 857.829 942.481 854.977 954.832C850.942 972.301 858.028 985.539 881.637 985.321C882.235 977.762 882.887 971.93 883.137 966.09C884.145 943 897.337 932.622 919.157 933.43C941.778 934.27 946.868 950.059 947.098 969.309C947.547 1005.86 920.676 1034.9 886.157 1034.8C848.051 1034.68 817.665 1003.01 820.442 965.782C821.251 954.981 823.438 944.282 825.434 930.512C807.946 926.68 791.997 923.18 773.848 919.2C780.063 966.52 785.399 1008.92 791.317 1051.25C793.704 1068.32 795.204 1085.96 800.919 1102C811.157 1130.77 837.45 1135.57 860.575 1112.11ZM1753.06 599.09C1745.9 610.731 1741.48 617.75 1737.23 624.86C1697.73 690.969 1604.68 694.692 1560.07 631.922C1539.43 602.852 1541.75 564.993 1568.44 545.672C1577.48 539.141 1595.8 535.852 1604.16 540.789C1611.91 545.34 1612.79 562.719 1615.07 574.75C1615.81 578.719 1611.19 583.571 1609.43 588.161C1601.72 608.219 1609.44 618.59 1630.04 621.43C1656.91 625.141 1675.85 613.309 1683.64 587.372C1694.71 550.59 1678.73 508.059 1645.97 487.071C1569.89 438.309 1459.34 496.34 1449.94 589.969C1442.8 661.153 1503.05 764.961 1569.23 791.762C1581.4 796.692 1598.94 796.68 1611.02 791.711C1634.3 782.122 1633.75 763.789 1616.66 750.372C1603.25 759.301 1591.77 767.903 1579.1 774.082C1577.57 774.832 1564.1 759.372 1565.61 756.641C1573.41 742.5 1581.97 723.129 1594.72 718.832C1609.28 713.903 1634.81 717.102 1644.28 727.282C1657.48 741.493 1668.85 767.153 1665.34 784.782C1660.41 809.422 1641.04 831.172 1624.61 859.789C1642.75 934.551 1598 978.551 1524.03 1005.62C1534.81 1015.75 1541.7 1022.24 1553.87 1033.68C1558.69 1025.88 1561.46 1018.28 1566.75 1013.39C1601.94 980.879 1638.73 953.582 1691.96 963.903C1702.19 965.903 1717.1 956.52 1726.39 948.43C1796.29 887.61 1815.94 808.309 1801.93 720.559C1795.31 678.981 1781.07 637.981 1753.06 599.09ZM734.684 1582.73C753.555 1647.57 757.922 1689.5 734.032 1714.5C699.598 1750.51 709.462 1785.63 728.438 1818.79C748.29 1853.51 772.055 1888.28 801.54 1914.73C858.055 1965.4 928.965 1976.07 1007.73 1974.85C1001.41 1965.11 998.915 1961.08 996.247 1957.17C959.266 1903.04 973.805 1836.78 1029.96 1803.73C1062.88 1784.35 1110.03 1789.43 1132.91 1814.81C1148.9 1832.54 1150.47 1858.94 1135.15 1871.41C1115.22 1887.68 1102.71 1875.75 1089.35 1859.72C1069.89 1836.36 1044.36 1840.7 1038.43 1869.93C1035.28 1885.48 1039.91 1907.92 1049.88 1919.92C1087.66 1965.47 1169.86 1951.51 1200.9 1896.55C1242.07 1823.59 1208.6 1727.75 1128.43 1696.74C1060.56 1670.48 994.825 1687.09 931.825 1716.48C922.915 1720.64 915.098 1731.73 911.348 1741.39C900.876 1768.26 914.715 1782.83 942.297 1779.51C940.665 1767.41 937.165 1755.1 938.528 1743.35C938.938 1739.69 954.637 1733.3 959.735 1735.73C968.606 1739.94 976.965 1748.99 981.176 1758.03C984.305 1764.76 982.165 1775.2 979.626 1783.09C965.606 1826.53 907.997 1836.42 878.255 1798.68C864.505 1781.23 858.317 1757.8 847.122 1733.68C817.176 1726.46 786.169 1709.44 775.407 1676.01C765.469 1645.17 766.212 1610.9 762.02 1576.25C762.044 1576.25 755.958 1576.19 750.087 1577.29C745.458 1578.14 741.102 1580.4 734.684 1582.73ZM1491.1 1519.33C1426.69 1567.55 1395.29 1566.54 1311.28 1508.8C1307.25 1520.47 1303.5 1531.37 1299.57 1542.76C1379.71 1557.86 1387.21 1563.78 1430.91 1636.99C1435.35 1644.42 1445.32 1650.43 1453.98 1653.17C1577.78 1692.46 1709.21 1644.32 1776.4 1499.89C1766.82 1500.63 1758.63 1501.65 1750.41 1501.84C1681.82 1503.37 1631.21 1445.03 1642.63 1377.76C1649.07 1339.9 1688.2 1304.93 1719.84 1313.07C1732.45 1316.31 1741.91 1331.78 1752.82 1341.7C1743.69 1351.18 1734.86 1360.95 1725.25 1369.93C1722.97 1372.07 1718.07 1371.19 1714.57 1372.31C1686.82 1381.2 1679.25 1403.28 1701.61 1421.4C1714.8 1432.09 1737.89 1438.87 1754.29 1435.74C1801.89 1426.65 1828.13 1375.23 1816.81 1322.41C1801.06 1248.89 1711.37 1204.87 1637.73 1234.5C1570.31 1261.66 1506.84 1366.94 1516.86 1438.87C1518.64 1451.66 1528.59 1466.41 1539.22 1474.18C1559.39 1488.93 1574.85 1479.69 1579.85 1452.47C1576.16 1452.9 1572.48 1452.63 1569.4 1453.84C1553.13 1460.18 1539.65 1455.11 1541.23 1438.08C1542.05 1429.43 1559.06 1414.75 1566.75 1415.91C1580.55 1417.99 1597.47 1427 1604.87 1438.43C1626.16 1471.27 1603.87 1516.9 1563.65 1522.73C1542.53 1525.77 1520.25 1520.99 1491.1 1519.33ZM337.778 1286.13C314.883 1205.45 375.407 1170.48 442.407 1131.92C432.864 1122.48 426.442 1116.13 419.629 1109.4C410.419 1117.62 406.294 1120.44 403.247 1124.14C369.29 1165.3 327.579 1185.19 272.86 1176.99C262.067 1175.36 246.926 1183.57 237.977 1191.79C136.235 1285.25 129.571 1413.3 205.723 1534.18C207.286 1536.65 211.727 1537.32 208.391 1535.69C230.587 1513.9 247.422 1489.76 270.501 1476.45C309.215 1454.12 349.911 1463.24 385.325 1488.25C412.516 1507.44 417.868 1536.65 411.661 1567.8C406.372 1594.4 384.922 1611.79 365.329 1604.87C337.977 1595.22 347.161 1575.06 353.008 1555.72C360.743 1530.17 347.829 1512.53 322.247 1518.79C306.493 1522.65 288.852 1535.6 280.54 1549.52C263.227 1578.52 274.969 1607.15 294.598 1631.49C324.747 1668.88 365.239 1682.45 410.493 1669.18C460.688 1654.46 497.102 1621.83 508.313 1568.22C528.887 1469.79 466.692 1398.64 398.762 1351.31C387.169 1343.22 360.465 1348.83 344.965 1356.57C328.708 1364.69 328.52 1381.65 340.122 1388.9C360.032 1380.84 373.239 1374.62 387.122 1371.02C388.813 1370.58 399.094 1387.78 396.954 1390.77C387.653 1403.79 377.215 1420.48 363.575 1425.05C323.114 1438.6 283.907 1397.27 297.559 1354.79C304.747 1332.46 321.481 1313.21 337.778 1286.13ZM386.559 682.832C400.122 689.372 412.672 695.403 425.227 701.442C419.997 710 414.325 726.039 409.61 725.77C394.079 724.86 374.973 722.301 364.43 712.582C345.645 695.282 344.258 671.719 358.848 648.559C375.059 622.801 409.102 608.18 443.102 617.5C461.297 622.5 474.602 622.493 490.551 610.493C531.856 579.391 575.27 582.391 618.204 608.602C629.399 615.442 640.391 622.61 653.61 630.993C658.165 620.012 661.61 611.692 665.747 601.711C653.29 598.59 643.79 596.391 634.391 593.789C588.63 581.102 549.454 561.852 535.907 509.821C533.36 500.09 517.61 491.02 506.071 486.86C439.426 462.801 373.77 471.141 312.86 503.52C255.446 534.032 214.837 582.25 184.411 643.911C194.044 644.352 197.7 645.309 200.969 644.551C282.157 625.582 325.817 697.2 322.618 754.372C320.614 790.43 291.555 823.582 260.071 827.95C239.637 830.801 217.383 829.879 211.379 805.969C204.93 780.25 224.133 773.34 245.829 768.903C272.555 763.422 281.633 738.2 261.161 720.719C248.305 709.743 225.696 703.711 208.575 705.582C175.95 709.122 149.919 742.571 145.419 778.782C140.012 822.36 151.294 861.09 189.094 885.68C235.434 915.801 285.672 931.059 339.079 902.262C417.883 859.821 439.243 784.68 447.395 703.922C448.571 692.289 437.344 675.95 427.149 667.379C407.657 650.969 392.79 659.039 386.559 682.832ZM1118.07 409.539C1202.23 427.743 1204.28 495.289 1195.04 572.082C1210.28 565.59 1219.38 561.711 1229.73 557.301C1206.87 500.059 1202.82 448.551 1247.39 402.653C1252.5 397.379 1251.96 383.903 1250.16 375.02C1220.73 230.051 1114.54 170.672 980.176 165.289C973.547 165.032 966.747 169.403 957.657 172.411C964.985 183.68 971.587 192.352 976.657 201.852C1000.12 245.762 987.606 295.622 944.915 330.129C915.028 354.282 866.317 355.493 838.344 332.75C814.903 313.711 809.829 289.422 827.005 272.379C850.059 249.52 863.305 268.629 877.637 284.993C894.516 304.27 911.305 302.289 923.368 279.653C936.106 255.75 931.087 233.512 911.637 216.012C886.977 193.821 857.973 186.59 825.751 197.903C781.512 213.422 751.313 242.231 746.223 290.36C740.075 348.512 757.13 398.141 809.032 430.43C882.247 475.969 956.286 459.539 1028.31 427.891C1040.86 422.379 1051.23 401.981 1054.19 386.821C1059.02 362 1043.04 353.891 1014.19 364.372C1015.82 367.442 1016.61 371.52 1019 372.993C1035.05 382.86 1035.32 397.11 1021.55 405.039C1013.89 409.45 992.075 404.762 988.895 398.211C982.805 385.7 980.028 366.469 985.497 354.379C1003.98 313.422 1054.29 306.481 1082.81 341.391C1097.78 359.7 1105.29 384.102 1118.07 409.539ZM1428.48 1695.45C1377.37 1780 1348.2 1795.24 1270.53 1776.98C1269.46 1797.32 1271.14 1818.01 1266.81 1837.37C1254.11 1894.31 1221.14 1937.32 1171.57 1968.31C1142.4 1986.56 1112.27 2004.25 1086.44 2026.65C1061.19 2048.55 1064.45 2067.2 1093.86 2086.68C1096.55 2076.6 1100.16 2068.09 1100.87 2059.38C1102.43 2040.2 1112 2025.75 1130.65 2031.43C1142.86 2035.15 1156.77 2049.98 1160.11 2062.47C1166.23 2085.23 1156.5 2105.48 1134.87 2118.96C1077.16 2154.93 963.126 2142.29 917.118 2091.98C903.715 2077.32 896.876 2056.66 884.958 2034.99C883.926 2034.99 877.575 2033.45 872.356 2035.23C811.145 2056.2 744.997 2015.41 722.102 1962.77C700.208 1912.47 688.059 1857.9 672.278 1805C669.227 1794.8 669.114 1783.7 667.348 1770.89C595.505 1770.14 529.715 1761.73 516.282 1674.15C514.747 1673.75 511.653 1671.91 510.551 1672.74C441.973 1724.68 370.751 1718.64 298.239 1682.56C271.774 1669.38 246.407 1653.56 219.016 1642.83C205.282 1637.45 187.2 1637.33 172.751 1641.17C157.801 1645.13 148.946 1658.2 160.649 1678.62C168.512 1675.51 175.645 1671.04 183.223 1670.09C195.071 1668.59 214.965 1665.23 217.672 1670.18C223.669 1681.19 225.915 1698.85 221.141 1710.23C210.251 1736.2 173.055 1740.81 143.454 1722.94C58.692 1671.78 35.567 1551.14 96.106 1471.91C95.192 1469.07 95.0631 1464.85 92.8951 1462.48C35.567 1399.47 42.481 1346.78 90.3209 1275.14C106.575 1250.8 127.848 1229.44 148.762 1208.65C169.629 1187.9 192.899 1169.56 217.754 1147.86C177.629 1086.52 159.696 1024.71 230.126 966.809C163.7 941.719 126.954 892.762 113.778 827.629C107.501 796.653 111.536 763.719 108.313 731.942C106.098 710.219 102.485 687.602 93.8756 667.832C83.3795 643.7 67.356 643.61 43.7389 666.391C52.4576 671.582 60.1217 676.282 67.9185 680.77C89.7584 693.391 90.3639 711.911 69.3209 726.102C41.8873 744.582 0.250583 727.539 0.00839452 693.442C-0.214261 662.629 3.93808 627.481 18.9654 601.692C56.481 537.243 106.762 486.762 190.856 505.141C194.446 500.879 196.544 499.262 197.508 497.122C234.864 413.981 295.172 383.403 389.551 403.981C437.477 414.422 484.204 430.461 535.645 445.161C567.083 384.969 610.528 339.68 692.614 362.942C689.575 300.379 707.219 246.832 751.544 207.071C779.661 181.86 815.079 165.012 845.301 141.903C862.325 128.903 878.907 112.782 889.356 94.4496C899.446 76.7309 892.985 59.559 866.286 54.7192C864.235 63.3324 861.036 69.2113 861.915 74.4106C865.215 93.9301 863.915 110.442 838.965 110.692C815.844 110.93 801.278 98.102 799.399 75.1293C796.708 42.2192 819.153 26.5317 845.419 15.4418C938.528 -23.8902 1036.43 13.6996 1080.15 107.879C1133.57 96.1918 1187.43 98.9809 1221.5 149.09C1243.98 182.11 1259.75 220.68 1272.89 258.7C1285.23 294.422 1290.18 332.7 1298.82 371.821C1371.6 367.219 1432.75 382.372 1449.4 464.93C1453.86 465.34 1456.97 466.653 1458.36 465.622C1526.6 415.461 1596.66 423.192 1667.57 458.821C1694 472.102 1719.66 487.172 1746.81 498.77C1766.56 507.219 1788.45 509.481 1804.6 490.309C1808.97 485.141 1808.25 475.68 1811.66 459.809C1795.91 466.903 1788.12 471.801 1779.63 473.879C1769.1 476.481 1750.81 481.082 1748.52 477.231C1741.81 466.039 1735.95 449.372 1739.55 437.911C1749.45 406.36 1788.41 396.653 1820.07 417.762C1869.41 450.641 1892.97 500.262 1901.18 557.25C1907.41 600.602 1899.1 640.879 1864.48 670.02C1925.98 759.11 1922.11 818.719 1847.98 899.942C1816.57 934.34 1780.45 964.43 1744.56 998.282C1790.39 1058.45 1801.07 1119.35 1734.04 1177.51C1829.59 1214.47 1852.21 1291.55 1856.2 1380.1C1857.52 1409.36 1857.84 1439.78 1866.34 1467.29C1875.5 1496.94 1894.98 1498.85 1918.94 1476.06C1911.35 1471.54 1903.23 1468.58 1897.8 1463.02C1890.75 1455.81 1880.91 1446.28 1881.32 1438.21C1881.75 1429.43 1891.38 1415.53 1899.11 1413.9C1913.25 1410.91 1935.96 1409.66 1942.53 1417.82C1955.11 1433.45 1966.68 1456.82 1965.06 1475.81C1956.53 1575.38 1867.4 1646.95 1770.47 1636.18C1769.48 1636.87 1768 1637.33 1767.57 1638.27C1723.56 1730.92 1671.8 1757.63 1569.34 1735.69C1522.61 1725.68 1477.19 1709.57 1428.48 1695.45Z" fill="#DBD5C4"/>
</svg>
